<?xml version="1.0" encoding="UTF-8"?>

<svg version="1.1" xmlns="http://www.w3.org/2000/svg" width="500" height="500">
    <rect
        x="0"
        y="0"
        width="500"
        height="500"
        rx="40"
        ry="40"
        fill="#FEFEFE"
    />

    <path d="M0 0 C0.93118766 17.68018276 1.12312964 35.29964106 1 53 C0.01 53 -0.98 53 -2 53 C-2.35191406 51.97261719 -2.70382812 50.94523437 -3.06640625 49.88671875 C-9.95239476 30.32946986 -21.25028292 14.83577735 -40.1484375 5.43359375 C-61.82488314 -3.90009428 -86.88384704 -5.4905733 -109.1875 2.8125 C-110.80205209 3.51837269 -112.40631 4.24821086 -114 5 C-114.87011719 5.39703125 -115.74023438 5.7940625 -116.63671875 6.203125 C-133.89214075 14.7692974 -147.512768 31.53810865 -153.91650391 49.58251953 C-163.85249052 80.30123242 -164.1500249 117.12074206 -149.8046875 146.52734375 C-139.09523412 167.13492828 -122.57915488 182.24244516 -100.25 189.375 C-90.4391678 192.24319411 -81.00658735 193.29501044 -70.8125 193.125 C-69.76513672 193.11597656 -68.71777344 193.10695313 -67.63867188 193.09765625 C-65.09219486 193.07440075 -62.54622969 193.04172569 -60 193 C-59.90517334 192.34032227 -59.81034668 191.68064453 -59.71264648 191.00097656 C-58.79096267 187.1197373 -57.22008711 183.61112725 -55.59765625 179.984375 C-55.24803329 179.19188354 -54.89841034 178.39939209 -54.53819275 177.58288574 C-53.38421364 174.96986912 -52.22331107 172.35998782 -51.0625 169.75 C-50.25792834 167.93090069 -49.45389961 166.11156115 -48.65039062 164.29199219 C-46.96714983 160.4814693 -45.28152818 156.67201285 -43.59423828 152.86328125 C-39.77453785 144.23635247 -35.98147474 135.59772705 -32.18942261 126.95861816 C-31.01553644 124.28538042 -29.84007405 121.61284046 -28.66430664 118.94042969 C-27.94283254 117.29884507 -27.22139504 115.65724436 -26.5 114.015625 C-26.01055153 112.90423157 -26.01055153 112.90423157 -25.51121521 111.77038574 C-21.62459136 104.14696302 -21.62459136 104.14696302 -22 96 C-23.1057393 93.58260565 -24.23979598 91.27067773 -25.5 88.9375 C-25.85384766 88.28136719 -26.20769531 87.62523437 -26.57226562 86.94921875 C-34.77735297 72.11970888 -44.47601586 61.69649405 -60.5 55.6875 C-69.18421747 53.98167157 -77.39504318 55.34406329 -86 57 C-85.70996094 55.11352539 -85.70996094 55.11352539 -85 53 C-82.39711068 51.5926238 -79.99403052 50.48851158 -77.25 49.4375 C-76.08754761 48.98298462 -76.08754761 48.98298462 -74.90161133 48.51928711 C-56.16221537 41.37577446 -37.57989517 40.16215844 -18.92138672 48.11914062 C1.18320234 57.33608565 15.33709432 76.67418864 25 96 C25.33 91.71 25.66 87.42 26 83 C26.99 83 27.98 83 29 83 C28.93296875 84.26328125 28.8659375 85.5265625 28.796875 86.828125 C28.47711407 102.18833031 33.06506749 113.83324542 39.49958801 127.56333923 C42.44869477 133.87907455 45.01500035 140.32690128 47.5625 146.8125 C48.55631742 149.31679935 49.55105874 151.82071515 50.546875 154.32421875 C50.9427179 155.3209259 50.9427179 155.3209259 51.34655762 156.33776855 C82.62033037 254.30388737 82.62033037 254.30388737 150.25 324.9375 C159.18034826 328.53803058 167.49885754 329.28187994 177.0625 329.125 C178.64708008 329.11146484 178.64708008 329.11146484 180.26367188 329.09765625 C182.84269253 329.0743167 185.4212199 329.04157775 188 329 C188 329.99 188 330.98 188 332 C164.80446328 341.69128589 139.73450356 345.86376543 115.76464844 336.08837891 C99.20669583 329.13808556 85.74227429 319.54596475 73 307 C72.18273437 306.20722656 71.36546875 305.41445313 70.5234375 304.59765625 C51.1076981 284.58110406 39.80796162 258.63318248 30 233 C29.66242676 232.12633789 29.32485352 231.25267578 28.97705078 230.35253906 C28.10366854 228.09143439 27.23666083 225.82809424 26.375 223.5625 C26.1272583 222.91273193 25.8795166 222.26296387 25.62426758 221.59350586 C24 217.24199916 24 217.24199916 24 215 C-0.09 215.33 -24.18 215.66 -49 216 C-51.825625 222.414375 -54.65125 228.82875 -57.5625 235.4375 C-58.45912354 237.44384521 -59.35574707 239.45019043 -60.27954102 241.51733398 C-60.98096261 243.13454654 -61.68085257 244.75242462 -62.37890625 246.37109375 C-62.75108276 247.18872192 -63.12325928 248.0063501 -63.50671387 248.84875488 C-65.88814729 254.44266448 -66.67907442 259.05402546 -65 265 C-62.26005976 269.02428723 -59.79023884 270.25423249 -55.1875 271.3125 C-53.79482492 271.56013717 -52.39968739 271.79568833 -51 272 C-51 272.99 -51 273.98 -51 275 C-72.45 275 -93.9 275 -116 275 C-116 274.01 -116 273.02 -116 272 C-114.081875 271.9071875 -114.081875 271.9071875 -112.125 271.8125 C-103.42562222 270.80030825 -97.2849124 266.9611072 -91.71337891 260.35327148 C-88.71340327 256.23290028 -86.7623824 251.72481332 -84.75 247.0625 C-84.06381592 245.52021729 -84.06381592 245.52021729 -83.36376953 243.94677734 C-81.89521495 240.63715434 -80.44726127 237.31898264 -79 234 C-77.96210011 231.64662233 -76.92303268 229.29375925 -75.8828125 226.94140625 C-73.55869408 221.68017016 -71.24802163 216.41324475 -68.94873047 211.14111328 C-68.33070096 209.74633232 -67.6822572 208.36451439 -67 207 C-67.68175293 207.02094727 -68.36350586 207.04189453 -69.06591797 207.06347656 C-110.2576136 208.14945819 -150.9848768 199.67627859 -181.71728516 170.68334961 C-198.85259273 153.96018467 -210.78688165 129.89142138 -211.265625 105.734375 C-211.26955797 103.74625973 -211.27326704 101.75809923 -211.26074219 99.77001953 C-211.25009187 97.76727645 -211.26166823 95.76445557 -211.2734375 93.76171875 C-211.2152255 64.21912939 -200.97922631 40.6547358 -180.875 19.375 C-174.24541643 12.96017759 -166.81325887 7.86855376 -159 3 C-158.09556152 2.43321533 -158.09556152 2.43321533 -157.17285156 1.85498047 C-113.29818161 -25.02769487 -45.15745842 -22.57872921 0 0 Z " fill="#403A63" transform="translate(289,95)"/>
    <path d="M0 0 C2.52932717 2.52932717 3.13033832 4.76675454 4.3125 8.14453125 C4.74820312 9.37880859 5.18390625 10.61308594 5.6328125 11.88476562 C6.08877145 13.19393041 6.54449844 14.503176 7 15.8125 C7.89401075 18.36132084 8.7908907 20.90912227 9.6875 23.45703125 C10.08324219 24.59116455 10.47898437 25.72529785 10.88671875 26.89379883 C11.59622861 28.87342471 12.3485019 30.8385988 13.15551758 32.78051758 C14.163576 35.42991311 14.09681372 36.4113117 13 39 C5.34265165 50.34258516 -10.91225709 62.03194735 -24.34375 64.65234375 C-25.2203125 64.76707031 -26.096875 64.88179688 -27 65 C-24.96223158 58.56583065 -22.5754885 52.35000818 -19.9453125 46.13671875 C-19.5618869 45.22348343 -19.1784613 44.31024811 -18.78341675 43.36933899 C-17.56703864 40.47407977 -16.34613931 37.58075383 -15.125 34.6875 C-14.31349415 32.75859306 -13.50229372 30.8295576 -12.69140625 28.90039062 C-11.51679602 26.10615665 -10.34159264 23.31218425 -9.16387939 20.51925659 C-7.5476808 16.68638661 -5.93418675 12.85281833 -4.35058594 9.00634766 C-3.90231445 7.91757324 -3.45404297 6.82879883 -2.9921875 5.70703125 C-2.62206543 4.80057861 -2.25194336 3.89412598 -1.87060547 2.96020508 C-1 1 -1 1 0 0 Z " fill="#FAFAFB" transform="translate(278,218)"/>
    <path d="M0 0 C0.66 0 1.32 0 2 0 C3.30352292 3.14104638 4.59055489 6.28860948 5.875 9.4375 C6.23980469 10.31599609 6.60460937 11.19449219 6.98046875 12.09960938 C7.33496094 12.97294922 7.68945312 13.84628906 8.0546875 14.74609375 C8.54171143 15.93223267 8.54171143 15.93223267 9.03857422 17.14233398 C10.33765538 21.00362017 11.11623418 25.02305383 12 29 C-5.49 29 -22.98 29 -41 29 C-38.45880114 26.45880114 -36.03830489 25.74576754 -32.6875 24.4375 C-20.52981013 19.43370713 -7.36961481 11.05442222 0 0 Z " fill="#FCFBFC" transform="translate(295,267)"/>
</svg>
