<svg xmlns="http://www.w3.org/2000/svg" width="150.059" height="150" viewBox="0 0 150.059 150">
  <g id="mainlogo" transform="translate(-0.004 0)">
    <path id="back" d="M115.724,4.568l12.222,1.248a34.989,34.989,0,0,1,31.262,31.248l1.247,12.219a283.607,283.607,0,0,1,0,57.638l-1.247,12.216a34.993,34.993,0,0,1-31.262,31.25l-12.222,1.245a283.83,283.83,0,0,1-57.661,0L45.84,150.388a34.991,34.991,0,0,1-31.261-31.25l-1.248-12.216a283.757,283.757,0,0,1,0-57.638l1.248-12.219A34.988,34.988,0,0,1,45.84,5.816L58.062,4.568a283.838,283.838,0,0,1,57.662,0Z" transform="translate(-11.86 -3.1)" fill="#fff" fill-rule="evenodd"/>

  </g>
</svg>
